<svg width="900" height="700" viewBox="0 0 900 700" xmlns="http://www.w3.org/2000/svg">
  <defs>
    <linearGradient id="sky2" x1="0" y1="0" x2="0" y2="1">
      <stop offset="0%" stop-color="#e0eff8"/>
      <stop offset="100%" stop-color="#f2f8fc"/>
    </linearGradient>
    <linearGradient id="tower" x1="0" y1="0" x2="1" y2="1">
      <stop offset="0%" stop-color="#d4dee7"/>
      <stop offset="100%" stop-color="#b7c8d8"/>
    </linearGradient>
    <linearGradient id="home" x1="0" y1="0" x2="1" y2="1">
      <stop offset="0%" stop-color="#cedac5"/>
      <stop offset="100%" stop-color="#9fb994"/>
    </linearGradient>
  </defs>

  <rect width="900" height="700" fill="url(#sky2)"/>
  <rect y="535" width="900" height="165" fill="#dce8dd"/>

  <rect x="180" y="290" width="220" height="250" rx="8" fill="url(#tower)"/>
  <rect x="216" y="328" width="36" height="44" fill="#f8fbfd"/>
  <rect x="272" y="328" width="36" height="44" fill="#f8fbfd"/>
  <rect x="328" y="328" width="36" height="44" fill="#f8fbfd"/>
  <rect x="216" y="392" width="36" height="44" fill="#f8fbfd"/>
  <rect x="272" y="392" width="36" height="44" fill="#f8fbfd"/>
  <rect x="328" y="392" width="36" height="44" fill="#f8fbfd"/>

  <rect x="450" y="355" width="250" height="185" rx="8" fill="url(#home)"/>
  <polygon points="430,365 575,260 720,365" fill="#7b9f87"/>
  <rect x="546" y="452" width="56" height="88" fill="#6e927b"/>
  <rect x="486" y="405" width="40" height="36" fill="#f8fbfd"/>
  <rect x="622" y="405" width="40" height="36" fill="#f8fbfd"/>

  <circle cx="125" cy="130" r="44" fill="#f2d59f" opacity="0.72"/>
</svg>
