<svg width="900" height="700" viewBox="0 0 900 700" xmlns="http://www.w3.org/2000/svg">
  <defs>
    <linearGradient id="sky" x1="0" y1="0" x2="0" y2="1">
      <stop offset="0%" stop-color="#d9edf7"/>
      <stop offset="100%" stop-color="#eef7fb"/>
    </linearGradient>
    <linearGradient id="houseA" x1="0" y1="0" x2="1" y2="1">
      <stop offset="0%" stop-color="#c8d7e2"/>
      <stop offset="100%" stop-color="#a6bdcc"/>
    </linearGradient>
    <linearGradient id="houseB" x1="0" y1="0" x2="1" y2="1">
      <stop offset="0%" stop-color="#bcd2c1"/>
      <stop offset="100%" stop-color="#8db39a"/>
    </linearGradient>
  </defs>

  <rect width="900" height="700" fill="url(#sky)"/>
  <rect y="520" width="900" height="180" fill="#dce8dd"/>

  <rect x="130" y="320" width="250" height="220" rx="8" fill="url(#houseA)"/>
  <polygon points="110,330 255,220 405,330" fill="#8aa4b7"/>
  <rect x="220" y="430" width="65" height="110" fill="#7e9aaf"/>
  <rect x="160" y="375" width="42" height="42" fill="#f8fbfd"/>
  <rect x="302" y="375" width="42" height="42" fill="#f8fbfd"/>

  <rect x="430" y="350" width="210" height="190" rx="8" fill="url(#houseB)"/>
  <polygon points="410,360 535,275 660,360" fill="#6f967c"/>
  <rect x="505" y="445" width="52" height="95" fill="#6e927b"/>
  <rect x="458" y="395" width="38" height="36" fill="#f8fbfd"/>
  <rect x="574" y="395" width="38" height="36" fill="#f8fbfd"/>

  <circle cx="760" cy="150" r="52" fill="#f0d7a6" opacity="0.75"/>
</svg>
